<mxfile host="app.diagrams.net" modified="2022-08-01T15:59:26.349Z" agent="5.0 (Windows NT 10.0; Win64; x64) AppleWebKit/537.36 (KHTML, like Gecko) Chrome/103.0.5060.134 Safari/537.36 Edg/103.0.1264.77" etag="CcsnurciXlJlxg4AVxzA" version="20.2.1" type="github">
  <diagram id="SMlSGlHsZOJHqie9-CAl" name="Page-1">
    <mxGraphModel dx="1038" dy="579" grid="1" gridSize="10" guides="1" tooltips="1" connect="1" arrows="1" fold="1" page="1" pageScale="1" pageWidth="850" pageHeight="1100" math="0" shadow="0">
      <root>
        <mxCell id="0" />
        <mxCell id="1" parent="0" />
        <mxCell id="huG4sFQA7rESZjVdTBkv-1" value="1" style="text;html=1;align=center;verticalAlign=middle;resizable=0;points=[];autosize=1;strokeColor=none;fillColor=none;" vertex="1" parent="1">
          <mxGeometry x="165" y="75" width="30" height="30" as="geometry" />
        </mxCell>
        <mxCell id="huG4sFQA7rESZjVdTBkv-4" value="" style="edgeStyle=orthogonalEdgeStyle;rounded=0;orthogonalLoop=1;jettySize=auto;html=1;" edge="1" parent="1" source="huG4sFQA7rESZjVdTBkv-2" target="huG4sFQA7rESZjVdTBkv-3">
          <mxGeometry relative="1" as="geometry" />
        </mxCell>
        <mxCell id="huG4sFQA7rESZjVdTBkv-2" value="start" style="ellipse;whiteSpace=wrap;html=1;" vertex="1" parent="1">
          <mxGeometry x="330" y="75" width="120" height="80" as="geometry" />
        </mxCell>
        <mxCell id="huG4sFQA7rESZjVdTBkv-8" value="" style="edgeStyle=orthogonalEdgeStyle;rounded=0;orthogonalLoop=1;jettySize=auto;html=1;" edge="1" parent="1" source="huG4sFQA7rESZjVdTBkv-3" target="huG4sFQA7rESZjVdTBkv-5">
          <mxGeometry relative="1" as="geometry" />
        </mxCell>
        <mxCell id="huG4sFQA7rESZjVdTBkv-3" value="a, b, c, d" style="shape=parallelogram;perimeter=parallelogramPerimeter;whiteSpace=wrap;html=1;fixedSize=1;" vertex="1" parent="1">
          <mxGeometry x="330" y="190" width="120" height="60" as="geometry" />
        </mxCell>
        <mxCell id="huG4sFQA7rESZjVdTBkv-7" value="" style="edgeStyle=orthogonalEdgeStyle;rounded=0;orthogonalLoop=1;jettySize=auto;html=1;" edge="1" parent="1" source="huG4sFQA7rESZjVdTBkv-5" target="huG4sFQA7rESZjVdTBkv-6">
          <mxGeometry relative="1" as="geometry" />
        </mxCell>
        <mxCell id="huG4sFQA7rESZjVdTBkv-5" value="average=a+b+c+d" style="rounded=0;whiteSpace=wrap;html=1;" vertex="1" parent="1">
          <mxGeometry x="330" y="290" width="120" height="60" as="geometry" />
        </mxCell>
        <mxCell id="huG4sFQA7rESZjVdTBkv-10" value="" style="edgeStyle=orthogonalEdgeStyle;rounded=0;orthogonalLoop=1;jettySize=auto;html=1;" edge="1" parent="1" source="huG4sFQA7rESZjVdTBkv-6" target="huG4sFQA7rESZjVdTBkv-9">
          <mxGeometry relative="1" as="geometry" />
        </mxCell>
        <mxCell id="huG4sFQA7rESZjVdTBkv-6" value="average=average/4" style="rounded=0;whiteSpace=wrap;html=1;" vertex="1" parent="1">
          <mxGeometry x="330" y="430" width="120" height="60" as="geometry" />
        </mxCell>
        <mxCell id="huG4sFQA7rESZjVdTBkv-12" value="" style="edgeStyle=orthogonalEdgeStyle;rounded=0;orthogonalLoop=1;jettySize=auto;html=1;" edge="1" parent="1" source="huG4sFQA7rESZjVdTBkv-9" target="huG4sFQA7rESZjVdTBkv-11">
          <mxGeometry relative="1" as="geometry" />
        </mxCell>
        <mxCell id="huG4sFQA7rESZjVdTBkv-9" value="print average" style="shape=document;whiteSpace=wrap;html=1;boundedLbl=1;" vertex="1" parent="1">
          <mxGeometry x="330" y="530" width="120" height="80" as="geometry" />
        </mxCell>
        <mxCell id="huG4sFQA7rESZjVdTBkv-11" value="end" style="ellipse;whiteSpace=wrap;html=1;" vertex="1" parent="1">
          <mxGeometry x="330" y="700" width="120" height="60" as="geometry" />
        </mxCell>
      </root>
    </mxGraphModel>
  </diagram>
</mxfile>
